<?xml version="1.0" encoding="UTF-8" standalone="no"?>
<svg width="178px" height="53px" viewBox="0 0 178 53" version="1.1" xmlns="http://www.w3.org/2000/svg" xmlns:xlink="http://www.w3.org/1999/xlink">
    <!-- Generator: Sketch 40.1 (33804) - http://www.bohemiancoding.com/sketch -->
    <title>apple</title>
    <desc>Created with Sketch.</desc>
    <defs></defs>
    <g id="Page-1" stroke="none" stroke-width="1" fill="none" fill-rule="evenodd">
        <g id="apple" fill="#DAE6ED">
            <g id="Layer_1">
                <path d="M172.347297,52.3977273 L5.77297297,52.3977273 C2.64594595,52.3977273 0.12027027,49.8681818 0.12027027,46.7363636 L0.12027027,6.26363636 C0.12027027,3.13181818 2.64594595,0.602272727 5.77297297,0.602272727 L172.347297,0.602272727 C175.474324,0.602272727 178,3.13181818 178,6.26363636 L178,46.7363636 C178,49.8681818 175.474324,52.3977273 172.347297,52.3977273 L172.347297,52.3977273 Z M5.6527027,1.80681818 C3.12702703,1.80681818 1.2027027,3.85454545 1.2027027,6.26363636 L1.2027027,46.7363636 C1.2027027,49.1454545 3.2472973,51.1931818 5.6527027,51.1931818 L172.227027,51.1931818 C174.752703,51.1931818 176.677027,49.1454545 176.677027,46.7363636 L176.677027,6.26363636 C176.677027,3.73409091 174.632432,1.80681818 172.227027,1.80681818 L5.6527027,1.80681818 L5.6527027,1.80681818 Z" id="Shape"></path>
            </g>
            <g id="Layer_2" transform="translate(16.837838, 7.227273)">
                <g id="Group">
                    <path d="M26.5797297,12.5272727 C24.5351351,9.63636364 21.5283784,9.15454545 20.4459459,9.15454545 C17.8,8.91363636 15.3945946,10.7204545 14.0716216,10.7204545 C12.7486486,10.7204545 10.7040541,9.15454545 8.53918919,9.275 C5.77297297,9.275 3.12702703,10.9613636 1.68378378,13.4909091 C-1.32297297,18.6704545 0.962162162,26.3795455 3.72837838,30.475 C5.17162162,32.5227273 6.85540541,34.8113636 9.02027027,34.6909091 C11.1851351,34.5704545 11.9067568,33.3659091 14.5527027,33.3659091 C17.0783784,33.3659091 17.9202703,34.6909091 20.0851351,34.6909091 C22.3702703,34.6909091 23.8135135,32.6431818 25.2567568,30.5954545 C26.9405405,28.1863636 27.5418919,25.8977273 27.6621622,25.7772727 C27.6621622,25.7772727 23.2121622,24.0909091 23.2121622,18.9113636 C22.8513514,14.6954545 26.4594595,12.6477273 26.5797297,12.5272727 L26.5797297,12.5272727 Z" id="Shape"></path>
                    <path d="M18.7621622,6.38409091 C19.9648649,4.93863636 20.6864865,3.01136364 20.4459459,0.963636364 C18.7621622,1.08409091 16.7175676,2.16818182 15.5148649,3.49318182 C14.4324324,4.69772727 13.4702703,6.74545455 13.7108108,8.67272727 C15.6351351,8.91363636 17.5594595,7.82954545 18.7621622,6.38409091 L18.7621622,6.38409091 Z" id="Shape"></path>
                    <path d="M49.3108108,29.3909091 L50.9945946,34.5704545 L54.0013514,34.5704545 L48.3486486,16.9840909 L44.8608108,16.9840909 L39.2081081,34.5704545 L42.0945946,34.5704545 L43.6581081,29.3909091 L49.3108108,29.3909091 L49.3108108,29.3909091 Z M45.5824324,22.525 C45.9432432,21.0795455 46.1837838,19.9954545 46.4243243,19.1522727 L46.4243243,19.1522727 C46.9054054,20.8386364 47.1459459,22.0431818 47.2662162,22.525 L48.7094595,27.1022727 L44.0189189,27.1022727 L45.5824324,22.525 L45.5824324,22.525 Z" id="Shape"></path>
                    <path d="M59.172973,39.75 L59.172973,33.0045455 L59.172973,33.0045455 C59.8945946,34.2090909 61.0972973,34.8113636 62.7810811,34.8113636 C64.3445946,34.8113636 65.6675676,34.2090909 66.6297297,33.125 C67.8324324,31.9204545 68.4337838,30.1136364 68.4337838,27.9454545 C68.4337838,26.0181818 67.9527027,24.4522727 66.9905405,23.2477273 C66.0283784,22.0431818 64.7054054,21.4409091 63.2621622,21.4409091 C61.3378378,21.4409091 59.8945946,22.1636364 59.0527027,23.7295455 L59.0527027,23.7295455 L58.9324324,21.6818182 L56.4067568,21.6818182 C56.527027,23.1272727 56.527027,24.4522727 56.527027,25.8977273 L56.527027,39.75 L59.172973,39.75 L59.172973,39.75 Z M59.172973,27.2227273 C59.172973,26.9818182 59.172973,26.7409091 59.2932432,26.3795455 C59.4135135,25.6568182 59.8945946,25.0545455 60.3756757,24.5727273 C60.977027,24.0909091 61.5783784,23.85 62.3,23.85 C63.3824324,23.85 64.1040541,24.2113636 64.7054054,25.0545455 C65.3067568,25.8977273 65.5472973,26.8613636 65.5472973,28.0659091 C65.5472973,29.3909091 65.3067568,30.475 64.7054054,31.3181818 C64.1040541,32.1613636 63.2621622,32.5227273 62.1797297,32.5227273 C61.3378378,32.5227273 60.4959459,32.1613636 60.0148649,31.5590909 C59.4135135,30.9568182 59.172973,30.1136364 59.172973,29.2704545 L59.172973,27.2227273 L59.172973,27.2227273 Z" id="Shape"></path>
                    <path d="M73.7256757,39.75 L73.7256757,33.0045455 L73.7256757,33.0045455 C74.4472973,34.2090909 75.65,34.8113636 77.3337838,34.8113636 C78.8972973,34.8113636 80.2202703,34.2090909 81.1824324,33.125 C82.3851351,31.9204545 82.9864865,30.1136364 82.9864865,27.9454545 C82.9864865,26.0181818 82.5054054,24.4522727 81.5432432,23.2477273 C80.5810811,22.0431818 79.2581081,21.4409091 77.8148649,21.4409091 C75.8905405,21.4409091 74.4472973,22.1636364 73.6054054,23.7295455 L73.6054054,23.7295455 L73.4851351,21.6818182 L70.9594595,21.6818182 C71.0797297,23.1272727 71.0797297,24.4522727 71.0797297,25.8977273 L71.0797297,39.75 L73.7256757,39.75 L73.7256757,39.75 Z M73.7256757,27.2227273 C73.7256757,26.9818182 73.7256757,26.7409091 73.8459459,26.3795455 C73.9662162,25.6568182 74.327027,25.0545455 74.9283784,24.5727273 C75.5297297,24.0909091 76.1310811,23.85 76.8527027,23.85 C77.9351351,23.85 78.6567568,24.2113636 79.2581081,25.0545455 C79.8594595,25.8977273 80.1,26.8613636 80.1,28.0659091 C80.1,29.3909091 79.8594595,30.475 79.2581081,31.3181818 C78.6567568,32.1613636 77.8148649,32.5227273 76.7324324,32.5227273 C75.7702703,32.5227273 75.0486486,32.1613636 74.5675676,31.5590909 C73.9662162,30.9568182 73.7256757,30.1136364 73.7256757,29.2704545 L73.7256757,27.2227273 L73.7256757,27.2227273 Z" id="Shape"></path>
                    <path d="M93.0891892,32.4022727 C91.6459459,32.4022727 90.2027027,32.0409091 89,31.3181818 L88.3986486,33.7272727 C89.6013514,34.45 91.0445946,34.8113636 92.9689189,34.8113636 C95.0135135,34.8113636 96.577027,34.3295455 97.7797297,33.2454545 C98.8621622,32.2818182 99.3432432,31.0772727 99.3432432,29.6318182 C99.3432432,28.4272727 98.9824324,27.3431818 98.2608108,26.6204545 C97.5391892,25.7772727 96.4567568,25.0545455 94.8932432,24.4522727 C93.6905405,23.9704545 92.8486486,23.4886364 92.3675676,23.1272727 C91.8864865,22.6454545 91.5256757,22.0431818 91.5256757,21.4409091 C91.5256757,20.8386364 91.7662162,20.2363636 92.2472973,19.875 C92.8486486,19.3931818 93.5702703,19.1522727 94.5324324,19.1522727 C95.7351351,19.1522727 96.9378378,19.3931818 97.9,19.9954545 L98.6216216,17.7068182 C97.5391892,17.1045455 96.2162162,16.8636364 94.6527027,16.8636364 C92.8486486,16.8636364 91.4054054,17.3454545 90.322973,18.3090909 C89.2405405,19.2727273 88.7594595,20.4772727 88.7594595,21.9227273 C88.7594595,24.0909091 90.322973,25.7772727 93.3297297,26.9818182 C94.4121622,27.3431818 95.2540541,27.825 95.7351351,28.3068182 C96.2162162,28.7886364 96.4567568,29.3909091 96.4567568,30.1136364 C96.4567568,30.9568182 96.2162162,31.5590909 95.6148649,32.0409091 C95.0135135,32.1613636 94.1716216,32.4022727 93.0891892,32.4022727 L93.0891892,32.4022727 Z" id="Shape"></path>
                    <path d="M102.710811,19.5136364 L102.710811,21.8022727 L100.906757,21.8022727 L100.906757,23.9704545 L102.710811,23.9704545 L102.710811,30.3545455 C102.710811,31.9204545 103.071622,33.125 103.672973,33.7272727 C104.274324,34.45 105.116216,34.6909091 106.318919,34.6909091 C107.281081,34.6909091 108.002703,34.5704545 108.483784,34.3295455 L108.363514,32.1613636 C108.002703,32.2818182 107.641892,32.2818182 107.160811,32.2818182 C106.078378,32.2818182 105.477027,31.4386364 105.477027,29.8727273 L105.477027,23.7295455 L108.604054,23.7295455 L108.604054,21.5613636 L105.477027,21.5613636 L105.477027,18.4295455 L102.710811,19.5136364 L102.710811,19.5136364 Z" id="Shape"></path>
                    <path d="M120.871622,32.8840909 C121.954054,31.6795455 122.555405,29.9931818 122.555405,28.0659091 C122.555405,26.1386364 122.074324,24.5727273 120.991892,23.3681818 C119.909459,22.1636364 118.345946,21.5613636 116.541892,21.5613636 C114.617568,21.5613636 113.054054,22.1636364 111.971622,23.4886364 C110.889189,24.6931818 110.287838,26.3795455 110.287838,28.3068182 C110.287838,30.2340909 110.889189,31.8 111.971622,33.0045455 C113.054054,34.2090909 114.497297,34.8113636 116.421622,34.8113636 C118.225676,34.8113636 119.789189,34.2090909 120.871622,32.8840909 L120.871622,32.8840909 Z M113.775676,31.1977273 C113.294595,30.3545455 113.054054,29.3909091 113.054054,28.1863636 C113.054054,26.9818182 113.294595,25.8977273 113.775676,25.175 C114.377027,24.2113636 115.218919,23.6090909 116.301351,23.6090909 C117.383784,23.6090909 118.225676,24.0909091 118.827027,25.175 C119.308108,26.0181818 119.548649,26.9818182 119.548649,28.1863636 C119.548649,29.3909091 119.308108,30.3545455 118.827027,31.1977273 C118.225676,32.2818182 117.383784,32.7636364 116.301351,32.7636364 C115.218919,32.7636364 114.377027,32.2818182 113.775676,31.1977273 L113.775676,31.1977273 Z" id="Shape"></path>
                    <path d="M127.847297,34.5704545 L127.847297,27.9454545 C127.847297,26.9818182 128.087838,26.1386364 128.568919,25.4159091 C129.05,24.6931818 129.891892,24.3318182 130.854054,24.3318182 C131.214865,24.3318182 131.455405,24.3318182 131.695946,24.4522727 L131.695946,21.8022727 L130.974324,21.8022727 C130.252703,21.8022727 129.531081,22.0431818 128.92973,22.525 C128.328378,23.0068182 127.847297,23.7295455 127.486486,24.5727273 L127.366216,24.5727273 L127.245946,22.1636364 L124.840541,22.1636364 C124.960811,23.3681818 124.960811,24.6931818 124.960811,26.1386364 L124.960811,34.8113636 L127.847297,34.8113636 L127.847297,34.5704545 Z" id="Shape"></path>
                    <path d="M144.324324,27.5840909 C144.324324,26.0181818 143.963514,24.6931818 143.241892,23.6090909 C142.27973,22.2840909 140.956757,21.5613636 139.152703,21.5613636 C137.348649,21.5613636 135.785135,22.2840909 134.702703,23.6090909 C133.62027,24.9340909 133.139189,26.5 133.139189,28.4272727 C133.139189,30.3545455 133.740541,31.9204545 134.822973,33.125 C135.905405,34.3295455 137.468919,34.8113636 139.393243,34.8113636 C141.077027,34.8113636 142.4,34.5704545 143.602703,33.9681818 L143.121622,32.0409091 C142.039189,32.4022727 140.956757,32.6431818 139.754054,32.6431818 C138.671622,32.6431818 137.709459,32.4022727 136.987838,31.8 C136.145946,31.1977273 135.785135,30.2340909 135.785135,28.9090909 L144.204054,28.9090909 C144.204054,28.5477273 144.324324,28.0659091 144.324324,27.5840909 L144.324324,27.5840909 Z M141.558108,26.8613636 L141.558108,26.8613636 L135.664865,26.8613636 C135.785135,26.0181818 136.025676,25.2954545 136.506757,24.6931818 C137.108108,23.9704545 137.82973,23.4886364 138.791892,23.4886364 C139.754054,23.4886364 140.595946,23.85 141.077027,24.6931818 C141.437838,25.2954545 141.558108,26.0181818 141.558108,26.8613636 L141.558108,26.8613636 L141.558108,26.8613636 L141.558108,26.8613636 Z" id="Shape"></path>
                    <path d="M47.8675676,6.02272727 C47.8675676,4.57727273 47.3864865,3.61363636 46.5445946,2.77045455 C45.822973,2.16818182 44.6202703,1.80681818 43.177027,1.80681818 C42.3351351,1.80681818 41.4932432,1.92727273 40.7716216,1.92727273 L40.7716216,10.4795455 C41.372973,10.6 41.9743243,10.6 42.8162162,10.6 C44.3797297,10.6 45.5824324,10.2386364 46.5445946,9.51590909 C47.3864865,8.79318182 47.8675676,7.58863636 47.8675676,6.02272727 L47.8675676,6.02272727 Z M45.5824324,8.67272727 C44.9810811,9.275 44.1391892,9.51590909 43.177027,9.51590909 L42.2148649,9.51590909 L42.2148649,3.01136364 C42.5756757,2.89090909 42.9364865,2.89090909 43.2972973,2.89090909 C44.3797297,2.89090909 45.1013514,3.13181818 45.5824324,3.73409091 C46.0635135,4.21590909 46.4243243,5.05909091 46.4243243,6.02272727 C46.4243243,7.22727273 46.1837838,8.07045455 45.5824324,8.67272727 L45.5824324,8.67272727 Z" id="Shape"></path>
                    <path d="M54.8432432,9.75681818 C55.4445946,9.15454545 55.6851351,8.31136364 55.6851351,7.34772727 C55.6851351,6.38409091 55.4445946,5.66136364 54.8432432,5.05909091 C54.2418919,4.45681818 53.5202703,4.09545455 52.6783784,4.09545455 C51.7162162,4.09545455 50.9945946,4.45681818 50.3932432,5.05909091 C49.7918919,5.66136364 49.5513514,6.50454545 49.5513514,7.46818182 C49.5513514,8.43181818 49.7918919,9.15454545 50.3932432,9.75681818 C50.9945946,10.3590909 51.7162162,10.7204545 52.5581081,10.7204545 C53.5202703,10.7204545 54.2418919,10.3590909 54.8432432,9.75681818 L54.8432432,9.75681818 Z M51.3554054,8.91363636 C51.1148649,8.55227273 50.9945946,7.95 50.9945946,7.46818182 C50.9945946,6.86590909 51.1148649,6.38409091 51.3554054,5.90227273 C51.5959459,5.42045455 52.077027,5.17954545 52.6783784,5.17954545 C53.1594595,5.17954545 53.6405405,5.42045455 53.8810811,5.90227273 C54.1216216,6.26363636 54.2418919,6.86590909 54.2418919,7.34772727 C54.2418919,7.82954545 54.1216216,8.43181818 53.8810811,8.79318182 C53.6405405,9.275 53.1594595,9.51590909 52.6783784,9.51590909 C52.077027,9.75681818 51.5959459,9.51590909 51.3554054,8.91363636 L51.3554054,8.91363636 Z" id="Shape"></path>
                    <g transform="translate(56.527027, 3.613636)" id="Shape">
                        <path d="M4.45,4.21590909 C4.69054054,3.61363636 4.81081081,2.89090909 4.93108108,2.16818182 L4.93108108,2.16818182 C5.05135135,2.89090909 5.17162162,3.49318182 5.41216216,4.21590909 L6.25405405,6.98636364 L7.57702703,6.98636364 L9.50135135,0.722727273 L8.17837838,0.722727273 L7.45675676,3.61363636 C7.21621622,4.33636364 7.09594595,5.05909091 6.97567568,5.66136364 L6.97567568,5.66136364 C6.85540541,5.05909091 6.73513514,4.33636364 6.49459459,3.61363636 L5.6527027,0.722727273 L4.57027027,0.722727273 L3.72837838,3.73409091 C3.48783784,4.57727273 3.36756757,5.17954545 3.2472973,5.78181818 L3.2472973,5.78181818 C3.12702703,5.17954545 3.00675676,4.45681818 2.76621622,3.73409091 L2.04459459,0.722727273 L0.601351351,0.722727273 L2.40540541,6.98636364 L3.72837838,6.98636364 L4.45,4.21590909 L4.45,4.21590909 Z"></path>
                    </g>
                    <path d="M73.1243243,10.6 L73.1243243,6.86590909 C73.1243243,5.90227273 72.8837838,5.3 72.4027027,4.81818182 C72.0418919,4.45681818 71.5608108,4.21590909 70.9594595,4.21590909 C70.4783784,4.21590909 70.1175676,4.33636364 69.7567568,4.57727273 C69.3959459,4.81818182 69.1554054,5.05909091 69.0351351,5.3 L69.0351351,5.3 L68.9148649,4.33636364 L67.7121622,4.33636364 L67.7121622,6.14318182 L67.7121622,10.6 L69.0351351,10.6 L69.0351351,6.86590909 C69.0351351,6.50454545 69.1554054,6.14318182 69.3959459,5.78181818 C69.6364865,5.42045455 69.9972973,5.3 70.3581081,5.3 C71.2,5.3 71.5608108,5.90227273 71.5608108,6.98636364 L71.5608108,10.6 L73.1243243,10.6 L73.1243243,10.6 Z" id="Shape"></path>
                    <rect id="Rectangle-path" x="75.5297297" y="1.44545455" width="1.32297297" height="9.15454545"></rect>
                    <path d="M84.3094595,9.75681818 C84.9108108,9.15454545 85.1513514,8.31136364 85.1513514,7.34772727 C85.1513514,6.38409091 84.9108108,5.66136364 84.3094595,5.05909091 C83.7081081,4.45681818 82.9864865,4.09545455 82.1445946,4.09545455 C81.1824324,4.09545455 80.4608108,4.45681818 79.8594595,5.05909091 C79.2581081,5.66136364 79.0175676,6.50454545 79.0175676,7.46818182 C79.0175676,8.43181818 79.2581081,9.15454545 79.8594595,9.75681818 C80.3405405,10.3590909 81.1824324,10.7204545 82.0243243,10.7204545 C82.9864865,10.7204545 83.7081081,10.3590909 84.3094595,9.75681818 L84.3094595,9.75681818 Z M80.8216216,8.91363636 C80.5810811,8.55227273 80.4608108,7.95 80.4608108,7.46818182 C80.4608108,6.86590909 80.5810811,6.38409091 80.8216216,5.90227273 C81.0621622,5.42045455 81.5432432,5.17954545 82.1445946,5.17954545 C82.6256757,5.17954545 83.1067568,5.42045455 83.3472973,5.90227273 C83.5878378,6.26363636 83.7081081,6.86590909 83.7081081,7.34772727 C83.7081081,7.82954545 83.5878378,8.43181818 83.3472973,8.79318182 C83.1067568,9.275 82.6256757,9.51590909 82.1445946,9.51590909 C81.5432432,9.75681818 81.0621622,9.51590909 80.8216216,8.91363636 L80.8216216,8.91363636 Z" id="Shape"></path>
                    <path d="M87.677027,7.10681818 C87.0756757,7.46818182 86.7148649,8.07045455 86.7148649,8.91363636 C86.7148649,9.39545455 86.8351351,9.87727273 87.1959459,10.2386364 C87.5567568,10.6 88.0378378,10.8409091 88.6391892,10.8409091 C89.4810811,10.8409091 90.0824324,10.6 90.4432432,9.99772727 L90.4432432,9.99772727 L90.5635135,10.7204545 L91.7662162,10.7204545 C91.7662162,10.3590909 91.6459459,9.87727273 91.6459459,9.275 L91.6459459,6.98636364 C91.6459459,5.3 90.8040541,4.45681818 89.2405405,4.45681818 C88.3986486,4.45681818 87.677027,4.57727273 87.0756757,4.93863636 L87.3162162,5.90227273 C87.7972973,5.54090909 88.2783784,5.42045455 88.8797297,5.42045455 C89.7216216,5.42045455 90.2027027,5.78181818 90.2027027,6.625 L90.2027027,6.74545455 C89.1202703,6.50454545 88.2783784,6.74545455 87.677027,7.10681818 L87.677027,7.10681818 Z M90.322973,7.46818182 L90.322973,8.43181818 L90.322973,8.67272727 C90.322973,8.91363636 90.0824324,9.275 89.8418919,9.39545455 C89.6013514,9.63636364 89.2405405,9.63636364 89,9.63636364 C88.7594595,9.63636364 88.5189189,9.51590909 88.2783784,9.39545455 C88.1581081,9.275 88.0378378,9.03409091 88.0378378,8.67272727 C88.0378378,7.82954545 88.7594595,7.46818182 90.322973,7.46818182 L90.322973,7.46818182 Z" id="Shape"></path>
                    <path d="M98.1405405,1.44545455 L98.1405405,5.05909091 L98.1405405,5.05909091 C97.7797297,4.45681818 97.1783784,4.21590909 96.3364865,4.21590909 C95.6148649,4.21590909 94.8932432,4.45681818 94.4121622,5.05909091 C93.9310811,5.66136364 93.5702703,6.50454545 93.5702703,7.46818182 C93.5702703,8.43181818 93.8108108,9.15454545 94.2918919,9.75681818 C94.772973,10.3590909 95.3743243,10.6 96.2162162,10.6 C97.1783784,10.6 97.7797297,10.2386364 98.2608108,9.39545455 L98.2608108,9.39545455 L98.3810811,10.3590909 L99.5837838,10.3590909 L99.5837838,8.67272727 L99.5837838,1.20454545 L98.1405405,1.20454545 L98.1405405,1.44545455 Z M98.1405405,7.95 C98.1405405,8.43181818 98.0202703,8.79318182 97.7797297,9.03409091 C97.5391892,9.39545455 97.1783784,9.51590909 96.6972973,9.51590909 C96.2162162,9.51590909 95.7351351,9.275 95.4945946,8.91363636 C95.2540541,8.55227273 95.0135135,8.07045455 95.0135135,7.46818182 C95.0135135,6.86590909 95.1337838,6.26363636 95.4945946,5.90227273 C95.7351351,5.54090909 96.2162162,5.3 96.6972973,5.3 C97.0581081,5.3 97.4189189,5.42045455 97.6594595,5.66136364 C97.9,5.90227273 98.1405405,6.14318182 98.1405405,6.50454545 L98.1405405,6.98636364 L98.1405405,7.95 L98.1405405,7.95 Z" id="Shape"></path>
                    <path d="M110.648649,9.75681818 C111.25,9.15454545 111.490541,8.31136364 111.490541,7.34772727 C111.490541,6.38409091 111.25,5.66136364 110.648649,5.05909091 C110.047297,4.45681818 109.325676,4.09545455 108.483784,4.09545455 C107.521622,4.09545455 106.8,4.45681818 106.198649,5.05909091 C105.597297,5.66136364 105.356757,6.50454545 105.356757,7.46818182 C105.356757,8.43181818 105.597297,9.15454545 106.198649,9.75681818 C106.8,10.3590909 107.521622,10.7204545 108.363514,10.7204545 C109.325676,10.7204545 110.047297,10.3590909 110.648649,9.75681818 L110.648649,9.75681818 Z M107.160811,8.91363636 C106.92027,8.55227273 106.8,7.95 106.8,7.46818182 C106.8,6.86590909 106.92027,6.38409091 107.160811,5.90227273 C107.401351,5.42045455 107.882432,5.17954545 108.483784,5.17954545 C108.964865,5.17954545 109.445946,5.42045455 109.686486,5.90227273 C109.927027,6.26363636 110.047297,6.86590909 110.047297,7.34772727 C110.047297,7.82954545 109.927027,8.43181818 109.686486,8.79318182 C109.445946,9.275 108.964865,9.51590909 108.483784,9.51590909 C107.882432,9.75681818 107.401351,9.51590909 107.160811,8.91363636 L107.160811,8.91363636 Z" id="Shape"></path>
                    <path d="M118.827027,10.6 L118.827027,6.86590909 C118.827027,5.90227273 118.586486,5.3 118.105405,4.81818182 C117.744595,4.45681818 117.263514,4.21590909 116.662162,4.21590909 C116.181081,4.21590909 115.82027,4.33636364 115.459459,4.57727273 C115.098649,4.81818182 114.858108,5.05909091 114.737838,5.3 L114.737838,5.3 L114.617568,4.33636364 L113.414865,4.33636364 L113.414865,6.14318182 L113.414865,10.6 L114.858108,10.6 L114.858108,6.86590909 C114.858108,6.50454545 114.978378,6.14318182 115.218919,5.78181818 C115.459459,5.42045455 115.82027,5.3 116.181081,5.3 C117.022973,5.3 117.383784,5.90227273 117.383784,6.98636364 L117.383784,10.6 L118.827027,10.6 L118.827027,10.6 Z" id="Shape"></path>
                    <path d="M125.321622,3.13181818 L125.321622,4.33636364 L124.359459,4.33636364 L124.359459,5.42045455 L125.321622,5.42045455 L125.321622,8.55227273 C125.321622,9.39545455 125.441892,9.87727273 125.802703,10.2386364 C126.163514,10.6 126.524324,10.7204545 127.125676,10.7204545 C127.606757,10.7204545 127.967568,10.7204545 128.208108,10.6 L128.208108,9.51590909 C128.087838,9.51590909 127.847297,9.63636364 127.606757,9.63636364 C127.125676,9.63636364 126.764865,9.275 126.764865,8.43181818 L126.764865,5.42045455 L128.328378,5.42045455 L128.328378,4.33636364 L126.764865,4.33636364 L126.764865,2.77045455 L125.321622,3.13181818 L125.321622,3.13181818 Z" id="Shape"></path>
                    <path d="M130.132432,1.44545455 L130.132432,10.6 L131.455405,10.6 L131.455405,6.86590909 C131.455405,6.625 131.455405,6.50454545 131.575676,6.38409091 C131.816216,5.78181818 132.297297,5.42045455 132.898649,5.42045455 C133.740541,5.42045455 134.101351,6.02272727 134.101351,7.10681818 L134.101351,10.6 L135.424324,10.6 L135.424324,6.86590909 C135.424324,5.90227273 135.183784,5.3 134.702703,4.81818182 C134.341892,4.45681818 133.860811,4.21590909 133.259459,4.21590909 C132.417568,4.21590909 131.816216,4.57727273 131.335135,5.3 L131.335135,5.3 L131.335135,1.56590909 L130.132432,1.56590909 L130.132432,1.44545455 Z" id="Shape"></path>
                    <path d="M140.475676,4.21590909 C139.513514,4.21590909 138.791892,4.57727273 138.310811,5.17954545 C137.82973,5.78181818 137.589189,6.625 137.589189,7.58863636 C137.589189,8.55227273 137.82973,9.275 138.431081,9.87727273 C139.032432,10.4795455 139.754054,10.7204545 140.716216,10.7204545 C141.558108,10.7204545 142.159459,10.6 142.760811,10.3590909 L142.52027,9.39545455 C142.039189,9.63636364 141.437838,9.63636364 140.836486,9.63636364 C140.235135,9.63636364 139.874324,9.51590909 139.513514,9.15454545 C139.152703,8.79318182 138.912162,8.31136364 138.912162,7.70909091 L143.001351,7.70909091 L143.001351,7.10681818 C143.001351,6.38409091 142.760811,5.66136364 142.4,5.17954545 C142.039189,4.57727273 141.317568,4.21590909 140.475676,4.21590909 L140.475676,4.21590909 Z M138.791892,6.74545455 C138.791892,6.38409091 139.032432,6.02272727 139.152703,5.66136364 C139.393243,5.3 139.754054,5.05909091 140.235135,5.05909091 C140.716216,5.05909091 141.077027,5.3 141.317568,5.66136364 C141.558108,5.90227273 141.558108,6.26363636 141.558108,6.74545455 L138.791892,6.74545455 L138.791892,6.74545455 Z" id="Shape"></path>
                </g>
            </g>
        </g>
    </g>
</svg>