<?xml version="1.0" encoding="UTF-8" standalone="no"?>
<svg width="285px" height="594px" viewBox="0 0 285 594" version="1.1" xmlns="http://www.w3.org/2000/svg" xmlns:xlink="http://www.w3.org/1999/xlink">
    <!-- Generator: Sketch 40.1 (33804) - http://www.bohemiancoding.com/sketch -->
    <title>iPhone-Silhouette</title>
    <desc>Created with Sketch.</desc>
    <defs></defs>
    <g id="Page-1" stroke="none" stroke-width="1" fill="none" fill-rule="evenodd">
        <g id="phone" transform="translate(17.000000, 35.000000)">
            <g id="Page-1">
                <g id="phone">
                    <g id="Phone">
                        <g id="Finals_v2">
                            <g id="snapchat.com/download-(Desktop)-Copy">
                                <g id="Oval-1-+-Phone-+-Phone">
                                    <g id="Oval-1-+-Phone">
                                        <g id="Phone" transform="translate(0.087379, 0.000000)">
                                            <g id="iPhone-Silhouette-+-Screen" transform="translate(0.000000, 0.061296)">
                                                <g id="iPhone-Silhouette" transform="translate(-16.000000, -33.000000)">
                                                    <path d="M281.540221,119.736931 L281.540221,39.5214158 C281.540221,17.7355091 263.823601,0.0752890271 241.968118,0.0752890271 L40.3563059,0.0752890271 C18.501586,0.0752890271 0.784202846,17.7355091 0.784202846,39.5214158 L0.784202846,66.1075683 L0.784202846,91.2594269 L0.784202846,119.727045 L0.784202846,164.266968 L0.784202846,174.699442 L0.784202846,219.239365 L0.784202846,549.939192 C0.784202846,571.724339 18.501586,589.383798 40.3563059,589.383798 L241.968118,589.383798 C263.823601,589.383798 281.540221,571.724339 281.540221,549.939192 L281.540221,164.266968 L281.540221,119.736931 L281.540221,119.736931 Z M272.328452,521.445021 C272.328452,522.724049 271.298504,523.770527 270.03968,523.770527 L12.1713802,523.770527 C10.9125557,523.770527 9.88260832,522.724049 9.88260832,521.445021 L9.88260832,56.343653 C9.88260832,55.0646243 10.9125557,54.0181462 12.1713802,54.0181462 L270.03968,54.0181462 C271.298504,54.0181462 272.328452,55.0646243 272.328452,56.343653 L272.328452,521.445021 L272.328452,521.445021 L272.328452,521.445021 Z" id="Fill-1" fill="#231F1F"></path>
                                                    <path d="M281.540221,119.736931 L281.540221,39.5214158 C281.540221,17.7355091 263.823601,0.0752890271 241.968118,0.0752890271 L40.3563059,0.0752890271 C18.501586,0.0752890271 0.784202846,17.7355091 0.784202846,39.5214158 L0.784202846,91.2594269 L0.784202846,119.727045 L0.784202846,164.266968 L0.784202846,174.699442 L0.784202846,219.239365 L0.784202846,549.939192 C0.784202846,571.724339 18.501586,589.383798 40.3563059,589.383798 L241.968118,589.383798 C263.823601,589.383798 281.540221,571.724339 281.540221,549.939192 L281.540221,164.266968 L281.540221,119.736931 L281.540221,119.736931 Z" id="Stroke-2" stroke="#231F1F" stroke-width="3.37142857"></path>
                                                    <path d="M117.496311,555.971441 C117.496311,543.325926 127.780525,533.073689 140.467189,533.073689 C153.153088,533.073689 163.438829,543.325926 163.438829,555.971441 C163.438829,568.616955 153.153088,578.870712 140.467189,578.870712 C127.780525,578.870712 117.496311,568.616955 117.496311,555.971441 L117.496311,555.971441 L117.496311,555.971441 L117.496311,555.971441 Z" id="Fill-8" fill="#414042"></path>
                                                    <path d="M117.496311,555.971441 C117.496311,543.325926 127.780525,533.073689 140.467189,533.073689 C153.153088,533.073689 163.438829,543.325926 163.438829,555.971441 C163.438829,568.616955 153.153088,578.870712 140.467189,578.870712 C127.780525,578.870712 117.496311,568.616955 117.496311,555.971441 L117.496311,555.971441 L117.496311,555.971441 L117.496311,555.971441 Z" id="Stroke-9" stroke="#58595B" stroke-width="2.24761905"></path>
                                                </g>
                                            </g>
                                        </g>
                                    </g>
                                </g>
                            </g>
                        </g>
                    </g>
                </g>
            </g>
        </g>
    </g>
</svg>